<?xml version="1.0" encoding="utf-8"?>
<!-- Generator: Adobe Illustrator 24.0.1, SVG Export Plug-In . SVG Version: 6.00 Build 0)  -->
<svg version="1.1" id="Capa_1" xmlns="http://www.w3.org/2000/svg" xmlns:xlink="http://www.w3.org/1999/xlink" x="0px" y="0px"
	 viewBox="0 0 221.5 35.4" style="enable-background:new 0 0 221.5 35.4;" xml:space="preserve">
<style type="text/css">
	.st0{fill:none;stroke:#000000;stroke-width:0.75;stroke-miterlimit:10;}
	.st1{fill:none;}
	.st2{fill-rule:evenodd;clip-rule:evenodd;}
</style>
<g>
	<path d="M39.5,14.6c0,4.4,1.8,7.9,7.6,7.9c4.5,0,7.7-2.3,7.7-6.6V2.8H51v12.1c0,2.3-1.1,4.2-3.9,4.2c-2.9,0-4-1.9-4-4.4
		C43.1,14.6,39.5,14.6,39.5,14.6z M67.4,2.5v3.6c3.7,0,6.5,2.1,6.5,6.5S71.1,19,67.4,19c-3.6,0-6.3-2.2-6.3-6.5h-3.8
		c0,6.5,4.5,10.1,10.1,10.1c5.8,0,10.3-3.3,10.3-10.1C77.7,6.1,73.2,2.5,67.4,2.5z M86.5,5.5c2.5,0,4.3,1.4,4.3,3.7h3.8
		c0-4.4-3.1-6.7-8.1-6.7C86.5,2.5,86.5,5.5,86.5,5.5z M79,7.8c0,7.1,11.8,4.6,11.8,9.2c0,1.6-1.6,2.6-4,2.6c-2.7,0-4.3-1.4-4.3-3.7
		h-3.8c0,4.6,3.3,6.7,8.2,6.7c4.5,0,7.7-2.3,7.7-5.7c0-7.1-12-4.9-12-9.1C82.6,7.8,79,7.8,79,7.8z M111.6,6.4V2.8H97.1v3.7
		L111.6,6.4L111.6,6.4z M111.6,14.3v-3.5H97.1v3.5H111.6z M97.1,22.3h14.5v-3.7H97.1V22.3z M133.6,2.8h-4.8l-7,19.6h4.1l1.2-3.6h8.5
		l1.3,3.6h4.4L133.6,2.8z M128.1,15.8l3-8.9h0.3l3.2,8.9H128.1z M156.6,22.3h3.7V2.8h-3.6v13.5h-0.2l-9.4-13.5h-3.9L156.6,22.3z
		 M143.3,22.3h3.7v-9.6l-3.7-5.2V22.3z M166.9,12.6c0-3.8,2.6-6.7,6.5-6.7c3,0,4.9,1.4,5.6,3.6h4c-0.9-4.9-4.3-6.9-9.7-6.9
		c-6.2,0-10.2,3.9-10.2,10.1h3.8L166.9,12.6L166.9,12.6z M173.1,22.3l6.5-4.7v4.7h3.5c0-0.1,0-10.3,0-10.4h-10.4v2.7h5.6l-10.7,7.7
		H173.1z M200.7,6.4V2.8h-14.5v3.7L200.7,6.4L200.7,6.4z M200.7,14.3v-3.5h-14.5v3.5H200.7z M186.2,22.3h14.5v-3.7h-14.5V22.3z
		 M208.1,16.5V2.8h-3.8v13.7H208.1z M204.3,22.3h14.2v-3.7h-14.2V22.3z"/>
	<path d="M77.9,25l2.5,7.9h1.2l2.5-7.9h-1l-1.3,4.3c-0.1,0.5-0.3,0.9-0.4,1.3c-0.1,0.4-0.2,0.8-0.4,1.3l0,0
		c-0.2-0.5-0.3-0.9-0.4-1.3c-0.1-0.4-0.2-0.8-0.4-1.3L78.9,25C78.9,25,77.9,25,77.9,25z M88.4,29.6H86l0.4-1.2
		c0.1-0.4,0.3-0.9,0.4-1.3s0.3-0.9,0.4-1.3l0,0c0.1,0.5,0.3,0.9,0.4,1.3s0.3,0.9,0.4,1.3L88.4,29.6z M88.6,30.5l0.8,2.4h1.1L87.8,25
		h-1.1L84,32.9h1l0.8-2.4C85.8,30.5,88.6,30.5,88.6,30.5z M91.5,25v7.9h4.4V32h-3.4v-7C92.5,25,91.5,25,91.5,25z M97.4,25v7.9h2
		c0.6,0,1.1-0.1,1.6-0.3s0.8-0.4,1.2-0.8c0.3-0.3,0.5-0.8,0.7-1.3s0.2-1,0.2-1.7c0-1.3-0.3-2.2-0.9-2.9c-0.6-0.7-1.6-1-2.8-1
		L97.4,25L97.4,25z M99.3,32h-0.9v-6.2h0.9c0.9,0,1.6,0.3,2.1,0.8s0.7,1.3,0.7,2.3s-0.2,1.8-0.7,2.3C100.9,31.8,100.2,32,99.3,32z
		 M104.8,25v7.9h4.7V32h-3.7v-2.9h3v-0.9h-3v-2.4h3.5V25H104.8z M111.1,31l-0.6,0.7c0.3,0.4,0.8,0.6,1.2,0.8c0.5,0.2,1,0.3,1.5,0.3
		c0.4,0,0.8,0,1.1-0.2c0.3-0.1,0.6-0.3,0.8-0.5c0.2-0.2,0.4-0.4,0.5-0.7c0.1-0.3,0.2-0.6,0.2-0.9s-0.1-0.5-0.1-0.8
		c-0.1-0.2-0.2-0.4-0.3-0.6c-0.2-0.2-0.3-0.3-0.5-0.4s-0.4-0.2-0.6-0.3l-1.1-0.5c-0.2-0.1-0.3-0.1-0.5-0.2c-0.1-0.1-0.3-0.2-0.4-0.3
		s-0.2-0.2-0.3-0.4c-0.1-0.1-0.1-0.3-0.1-0.5c0-0.4,0.1-0.6,0.4-0.8c0.3-0.2,0.6-0.3,1.1-0.3c0.4,0,0.7,0.1,1,0.2s0.5,0.3,0.8,0.5
		l0.5-0.4c-0.3-0.3-0.6-0.5-1-0.7s-0.8-0.3-1.3-0.3c-0.4,0-0.7,0.1-1,0.2s-0.6,0.3-0.8,0.4c-0.2,0.2-0.4,0.4-0.5,0.7
		c-0.1,0.3-0.2,0.5-0.2,0.8s0,0.5,0.2,0.8c0.1,0.2,0.2,0.4,0.4,0.6c0.2,0.2,0.3,0.3,0.5,0.4s0.4,0.2,0.6,0.3l1.1,0.5
		c0.2,0.1,0.3,0.2,0.5,0.3c0.2,0.1,0.3,0.2,0.4,0.3c0.1,0.1,0.2,0.2,0.3,0.4c0.1,0.1,0.1,0.3,0.1,0.5c0,0.4-0.2,0.7-0.4,0.9
		c-0.3,0.2-0.7,0.4-1.2,0.4c-0.4,0-0.8-0.1-1.2-0.3C111.7,31.6,111.4,31.4,111.1,31z M119.9,25v7.9h1v-3.7h3.7v3.7h1V25h-1v3.3h-3.7
		V25C120.9,25,119.9,25,119.9,25z M127.7,25v7.9h4.7V32h-3.7v-2.9h3v-0.9h-3v-2.4h3.5V25H127.7z M135.1,28.6v-2.9h1.3
		c0.6,0,1.1,0.1,1.4,0.3c0.3,0.2,0.5,0.6,0.5,1.1s-0.2,0.9-0.5,1.1c-0.3,0.3-0.8,0.4-1.4,0.4H135.1z M138.4,32.8h1.1l-2-3.4
		c0.5-0.1,1-0.4,1.3-0.8s0.5-0.9,0.5-1.5c0-0.4-0.1-0.8-0.2-1c-0.1-0.3-0.3-0.5-0.6-0.7c-0.2-0.2-0.5-0.3-0.9-0.4
		c-0.3-0.1-0.7-0.1-1.1-0.1H134v7.9h1v-3.3h1.4L138.4,32.8z M141,25v7.9h0.9v-4.1c0-0.4,0-0.8,0-1.2c0-0.4-0.1-0.8-0.1-1.2h0.1
		l0.8,1.6l2.9,5h1v-7.9h-0.9v4.1c0,0.4,0,0.8,0,1.3c0,0.4,0.1,0.8,0.1,1.2l0,0l-0.9-1.6l-2.8-4.9H141V25z M152.1,29.6h-2.4l0.4-1.2
		c0.1-0.4,0.3-0.9,0.4-1.3c0.1-0.4,0.3-0.9,0.4-1.3l0,0c0.1,0.5,0.3,0.9,0.4,1.3c0.1,0.4,0.3,0.9,0.4,1.3L152.1,29.6z M152.4,30.5
		l0.8,2.4h1.1l-2.7-7.9h-1.1l-2.7,7.9h1l0.8-2.4C149.6,30.5,152.4,30.5,152.4,30.5z M155.3,25v7.9h0.9v-4.1c0-0.4,0-0.8,0-1.2
		c0-0.4-0.1-0.8-0.1-1.2l0,0L157,28l2.8,5h1v-7.9h-0.9v4.1c0,0.4,0,0.8,0,1.3s0.1,0.8,0.1,1.2h-0.1l-0.8-1.6l-2.8-4.9h-1V25z
		 M163.1,25v7.9h2c0.6,0,1.1-0.1,1.6-0.3s0.8-0.4,1.1-0.8c0.3-0.3,0.6-0.8,0.7-1.3c0.2-0.5,0.2-1,0.2-1.7c0-1.3-0.3-2.2-1-2.9
		c-0.6-0.7-1.5-1-2.8-1L163.1,25L163.1,25z M165,32h-0.9v-6.2h0.9c0.9,0,1.6,0.3,2.1,0.8c0.5,0.5,0.7,1.3,0.7,2.3s-0.2,1.8-0.7,2.3
		C166.6,31.8,165.9,32,165,32z M170.5,25v7.9h4.7V32h-3.7v-2.9h3v-0.9h-3v-2.4h3.5V25H170.5z M176.3,32.3v0.6h5.4v-0.9h-4.2l4.2-6.4
		v-0.6h-5v0.8h3.8L176.3,32.3z"/>
	<line class="st0" x1="45.5" y1="29.6" x2="75.1" y2="29.6"/>
	<line class="st0" x1="183.9" y1="29.6" x2="213.5" y2="29.6"/>
</g>
<path class="st1" d="M3.2,0h35.4v35.4H3.2V0z"/>
<path class="st2" d="M7.2,11.3L20,24.1l-6.4,6.4l-6.4-6.4C3.7,20.6,3.7,14.9,7.2,11.3z M34.5,24.1L21.8,11.3L28.2,5l6.4,6.4
	C38,14.9,38,20.6,34.5,24.1z M14.5,31.4l12.7-12.7l6.4,6.4l-6.4,6.4C23.7,34.9,18,34.9,14.5,31.4z M27.2,4.1L14.5,16.8l-6.4-6.4
	l6.4-6.4C18,0.5,23.7,0.5,27.2,4.1z"/>
</svg>
