<svg xmlns="http://www.w3.org/2000/svg" xmlns:serif="http://www.serif.com/" viewBox="0 0.5 100 100" fill-rule="evenodd" clip-rule="evenodd" stroke-linejoin="round" stroke-miterlimit="1.414"><path serif:id="Page 68" fill="none" d="M0 .5h100v100H0z"/><path d="M11.43 32.501l35.999 35.998L29.43 86.498l-18-17.999c-9.94-9.941-9.94-26.058 0-35.998zM88.57 68.499L52.571 32.501 70.57 14.502l18 17.999c9.94 9.941 9.94 26.058 0 35.998zM32.001 89.07l35.998-35.999 18 17.999-18 18c-9.94 9.94-26.057 9.94-35.998 0zM67.999 11.93L32.001 47.929l-18-17.999 18-18c9.94-9.94 26.057-9.94 35.998 0z" fill="#000000"/></svg>