<?xml version="1.0" encoding="utf-8"?>
<!-- Generator: Adobe Illustrator 24.0.1, SVG Export Plug-In . SVG Version: 6.00 Build 0)  -->
<svg version="1.1" id="Capa_1" xmlns="http://www.w3.org/2000/svg" xmlns:xlink="http://www.w3.org/1999/xlink" x="0px" y="0px"
	 viewBox="0 0 230.9 35.4" style="enable-background:new 0 0 230.9 35.4;" xml:space="preserve">
<style type="text/css">
	.st0{fill:#FFFFFF;}
	.st1{fill:none;stroke:#FFFFFF;stroke-width:0.75;stroke-miterlimit:10;}
	.st2{fill:none;}
	.st3{fill-rule:evenodd;clip-rule:evenodd;fill:#FFFFFF;}
</style>
<g>
	<path class="st0" d="M48.9,14.6c0,4.4,1.8,7.9,7.6,7.9c4.5,0,7.7-2.3,7.7-6.6V2.8h-3.8v12.1c0,2.3-1.1,4.2-3.9,4.2
		c-2.9,0-4-1.9-4-4.4C52.5,14.6,48.9,14.6,48.9,14.6z M76.8,2.5v3.6c3.7,0,6.5,2.1,6.5,6.5S80.5,19,76.8,19c-3.6,0-6.3-2.2-6.3-6.5
		h-3.8c0,6.5,4.5,10.1,10.1,10.1c5.8,0,10.3-3.3,10.3-10.1C87.1,6.1,82.6,2.5,76.8,2.5z M95.9,5.5c2.5,0,4.3,1.4,4.3,3.7h3.8
		c0-4.4-3.1-6.7-8.1-6.7C95.9,2.5,95.9,5.5,95.9,5.5z M88.4,7.8c0,7.1,11.8,4.6,11.8,9.2c0,1.6-1.6,2.6-4,2.6
		c-2.7,0-4.3-1.4-4.3-3.7h-3.8c0,4.6,3.3,6.7,8.2,6.7c4.5,0,7.7-2.3,7.7-5.7c0-7.1-12-4.9-12-9.1C92,7.8,88.4,7.8,88.4,7.8z
		 M121,6.4V2.8h-14.5v3.7L121,6.4L121,6.4z M121,14.3v-3.5h-14.5v3.5H121z M106.5,22.3H121v-3.7h-14.5V22.3z M143,2.8h-4.8l-7,19.6
		h4.1l1.2-3.6h8.5l1.3,3.6h4.4L143,2.8z M137.5,15.8l3-8.9h0.3l3.2,8.9H137.5z M166,22.3h3.7V2.8h-3.6v13.5h-0.2l-9.4-13.5h-3.9
		L166,22.3z M152.7,22.3h3.7v-9.6l-3.7-5.2V22.3z M176.3,12.6c0-3.8,2.6-6.7,6.5-6.7c3,0,4.9,1.4,5.6,3.6h4
		c-0.9-4.9-4.3-6.9-9.7-6.9c-6.2,0-10.2,3.9-10.2,10.1h3.8L176.3,12.6L176.3,12.6z M182.5,22.3l6.5-4.7v4.7h3.5c0-0.1,0-10.3,0-10.4
		h-10.4v2.7h5.6L177,22.3H182.5z M210.1,6.4V2.8h-14.5v3.7L210.1,6.4L210.1,6.4z M210.1,14.3v-3.5h-14.5v3.5H210.1z M195.6,22.3
		h14.5v-3.7h-14.5V22.3z M217.5,16.5V2.8h-3.8v13.7H217.5z M213.7,22.3h14.2v-3.7h-14.2V22.3z"/>
	<path class="st0" d="M87.3,25l2.5,7.9H91l2.5-7.9h-1l-1.3,4.3c-0.1,0.5-0.3,0.9-0.4,1.3s-0.2,0.8-0.4,1.3l0,0
		c-0.2-0.5-0.3-0.9-0.4-1.3s-0.2-0.8-0.4-1.3L88.3,25H87.3z M97.8,29.6h-2.4l0.4-1.2c0.1-0.4,0.3-0.9,0.4-1.3s0.3-0.9,0.4-1.3l0,0
		c0.1,0.5,0.3,0.9,0.4,1.3s0.3,0.9,0.4,1.3L97.8,29.6z M98,30.5l0.8,2.4h1.1L97.2,25h-1.1l-2.7,7.9h1l0.8-2.4
		C95.2,30.5,98,30.5,98,30.5z M100.9,25v7.9h4.4V32h-3.4v-7H100.9z M106.8,25v7.9h2c0.6,0,1.1-0.1,1.6-0.3s0.8-0.4,1.2-0.8
		c0.3-0.3,0.5-0.8,0.7-1.3s0.2-1,0.2-1.7c0-1.3-0.3-2.2-0.9-2.9c-0.6-0.7-1.6-1-2.8-1L106.8,25L106.8,25z M108.7,32h-0.9v-6.2h0.9
		c0.9,0,1.6,0.3,2.1,0.8s0.7,1.3,0.7,2.3s-0.2,1.8-0.7,2.3C110.3,31.8,109.6,32,108.7,32z M114.2,25v7.9h4.7V32h-3.7v-2.9h3v-0.9h-3
		v-2.4h3.5V25H114.2z M120.5,31l-0.6,0.7c0.3,0.4,0.8,0.6,1.2,0.8c0.5,0.2,1,0.3,1.5,0.3c0.4,0,0.8,0,1.1-0.2
		c0.3-0.1,0.6-0.3,0.8-0.5c0.2-0.2,0.4-0.4,0.5-0.7c0.1-0.3,0.2-0.6,0.2-0.9s-0.1-0.5-0.1-0.8c-0.1-0.2-0.2-0.4-0.3-0.6
		c-0.2-0.2-0.3-0.3-0.5-0.4s-0.4-0.2-0.6-0.3l-1.1-0.5c-0.2-0.1-0.3-0.1-0.5-0.2c-0.1-0.1-0.3-0.2-0.4-0.3s-0.2-0.2-0.3-0.4
		c-0.1-0.1-0.1-0.3-0.1-0.5c0-0.4,0.1-0.6,0.4-0.8c0.3-0.2,0.6-0.3,1.1-0.3c0.4,0,0.7,0.1,1,0.2s0.5,0.3,0.8,0.5l0.5-0.4
		c-0.3-0.3-0.6-0.5-1-0.7s-0.8-0.3-1.3-0.3c-0.4,0-0.7,0.1-1,0.2s-0.6,0.3-0.8,0.4c-0.2,0.2-0.4,0.4-0.5,0.7
		c-0.1,0.3-0.2,0.5-0.2,0.8s0,0.5,0.2,0.8c0.1,0.2,0.2,0.4,0.4,0.6c0.2,0.2,0.3,0.3,0.5,0.4s0.4,0.2,0.6,0.3l1.1,0.5
		c0.2,0.1,0.3,0.2,0.5,0.3c0.2,0.1,0.3,0.2,0.4,0.3c0.1,0.1,0.2,0.2,0.3,0.4c0.1,0.1,0.1,0.3,0.1,0.5c0,0.4-0.2,0.7-0.4,0.9
		c-0.3,0.2-0.7,0.4-1.2,0.4c-0.4,0-0.8-0.1-1.2-0.3C121.1,31.6,120.8,31.4,120.5,31z M129.3,25v7.9h1v-3.7h3.7v3.7h1V25h-1v3.3h-3.7
		V25H129.3z M137.1,25v7.9h4.7V32h-3.7v-2.9h3v-0.9h-3v-2.4h3.5V25H137.1z M144.5,28.6v-2.9h1.3c0.6,0,1.1,0.1,1.4,0.3
		c0.3,0.2,0.5,0.6,0.5,1.1s-0.2,0.9-0.5,1.1c-0.3,0.3-0.8,0.4-1.4,0.4H144.5z M147.8,32.8h1.1l-2-3.4c0.5-0.1,1-0.4,1.3-0.8
		s0.5-0.9,0.5-1.5c0-0.4-0.1-0.8-0.2-1c-0.1-0.3-0.3-0.5-0.6-0.7c-0.2-0.2-0.5-0.3-0.9-0.4c-0.3-0.1-0.7-0.1-1.1-0.1h-2.5v7.9h1
		v-3.3h1.4L147.8,32.8z M150.4,25v7.9h0.9v-4.1c0-0.4,0-0.8,0-1.2c0-0.4-0.1-0.8-0.1-1.2h0.1l0.8,1.6l2.9,5h1v-7.9h-0.9v4.1
		c0,0.4,0,0.8,0,1.3c0,0.4,0.1,0.8,0.1,1.2l0,0l-0.9-1.6l-2.8-4.9h-1.1V25z M161.5,29.6h-2.4l0.4-1.2c0.1-0.4,0.3-0.9,0.4-1.3
		c0.1-0.4,0.3-0.9,0.4-1.3l0,0c0.1,0.5,0.3,0.9,0.4,1.3c0.1,0.4,0.3,0.9,0.4,1.3L161.5,29.6z M161.8,30.5l0.8,2.4h1.1L161,25h-1.1
		l-2.7,7.9h1l0.8-2.4C159,30.5,161.8,30.5,161.8,30.5z M164.7,25v7.9h0.9v-4.1c0-0.4,0-0.8,0-1.2c0-0.4-0.1-0.8-0.1-1.2l0,0l0.9,1.6
		l2.8,5h1v-7.9h-0.9v4.1c0,0.4,0,0.8,0,1.3s0.1,0.8,0.1,1.2h-0.1l-0.8-1.6l-2.8-4.9h-1V25z M172.5,25v7.9h2c0.6,0,1.1-0.1,1.6-0.3
		s0.8-0.4,1.1-0.8c0.3-0.3,0.6-0.8,0.7-1.3c0.2-0.5,0.2-1,0.2-1.7c0-1.3-0.3-2.2-1-2.9c-0.6-0.7-1.5-1-2.8-1L172.5,25L172.5,25z
		 M174.4,32h-0.9v-6.2h0.9c0.9,0,1.6,0.3,2.1,0.8s0.7,1.3,0.7,2.3s-0.2,1.8-0.7,2.3C176,31.8,175.3,32,174.4,32z M179.9,25v7.9h4.7
		V32h-3.7v-2.9h3v-0.9h-3v-2.4h3.5V25H179.9z M185.7,32.3v0.6h5.4V32h-4.2l4.2-6.4V25h-5v0.8h3.8L185.7,32.3z"/>
	<line class="st1" x1="54.9" y1="29.6" x2="84.5" y2="29.6"/>
	<line class="st1" x1="193.3" y1="29.6" x2="222.9" y2="29.6"/>
</g>
<path class="st2" d="M12.6,0H48v35.4H12.6V0z"/>
<path class="st3" d="M9.8,11.3l12.8,12.8l-6.4,6.4l-6.4-6.4C6.3,20.6,6.3,14.9,9.8,11.3z M37.1,24.1L24.4,11.3L30.8,5l6.4,6.4
	C40.6,14.9,40.6,20.6,37.1,24.1z M17.1,31.4l12.7-12.7l6.4,6.4l-6.4,6.4C26.3,34.9,20.6,34.9,17.1,31.4z M29.8,4.1L17.1,16.8
	l-6.4-6.4L17.1,4C20.6,0.5,26.3,0.5,29.8,4.1z"/>
</svg>
